<svg id="Layer_1" data-name="Layer 1" xmlns="http://www.w3.org/2000/svg" viewBox="0 0 718.05 166.06"><defs><style>.cls-1{opacity:0.8;}.cls-2{fill:#121212;}</style></defs><title>text-blog</title><g class="cls-1"><path class="cls-2" d="M141.91,0q-.91,11.73-1.27,22.54T140.3,39.1q0,5.06.23,9.66c.15,3.07.31,5.67.46,7.82H135.7Q132,37.26,126.38,26T112.93,10a35,35,0,0,0-18.4-4.71H89.24V136.62q0,9.19,2,13.8a10.45,10.45,0,0,0,7.25,6.09q5.3,1.5,15.41,1.73v4.6q-7.12-.22-19-.46t-24.73-.23q-12.65,0-23.92.23t-18.17.46v-4.6q10.35-.23,15.64-1.73a10.1,10.1,0,0,0,7.13-6.09q1.85-4.6,1.84-13.8V5.29H47.61A35,35,0,0,0,29.21,10Q21.4,14.73,15.87,25.88T6.21,56.58H.92a68.46,68.46,0,0,0,.58-7.82q.1-4.6.11-9.66,0-5.74-.34-16.56T0,0Q10.58.22,23.12.46T48.3.69H94q12.53,0,25.18-.23T141.91,0Z"/><path class="cls-2" d="M161.46,0q5.74.22,15.52.46t19.44.23q11,0,21.39-.23T232.53.23q21.39,0,35.53,4.71t21.16,13.69q7,9,7,21.62A41.58,41.58,0,0,1,293,56a39.63,39.63,0,0,1-10.93,14.72q-7.69,6.8-21,10.81t-33.58,4H205.39V81h19.78q13.56,0,20.58-5.18A26.25,26.25,0,0,0,255.42,62a65.44,65.44,0,0,0,2.64-19.2q0-18.16-6.44-28.18t-22.08-10q-9,0-11.62,3.91t-2.64,15.87V138.46q0,8.28,1.26,12.42a8,8,0,0,0,5,5.52,40.69,40.69,0,0,0,11,1.84v4.6q-6.21-.47-15.64-.58t-19.09-.11q-11,0-20.82.11t-15.52.58v-4.6a40.77,40.77,0,0,0,11-1.84,8,8,0,0,0,4.94-5.52q1.27-4.14,1.27-12.42V24.38q0-8.5-1.27-12.54a8.27,8.27,0,0,0-5.06-5.52A34.21,34.21,0,0,0,161.46,4.6Zm43.47,81.65q9.88.22,17.13.92t12.77,1.26c3.68.39,7,.66,9.89.81q20.93,1.85,30.93,9t13,21.39l5.29,23.69q2.07,9.19,4.37,12.88a7.41,7.41,0,0,0,6.67,3.68,10.33,10.33,0,0,0,4.94-1.5,22.06,22.06,0,0,0,4.26-3.79l3.22,2.76A38.24,38.24,0,0,1,304.06,163a43.31,43.31,0,0,1-17.25,3.1q-12.42,0-20.47-5.29t-10.58-19.55l-4.14-23a125.34,125.34,0,0,0-3.91-16.91,29.44,29.44,0,0,0-6.33-11.5q-4-4.25-11.15-4.25H205.39Z"/><path class="cls-2" d="M397.44,0V4.6q-7.37.23-11.16,1.72a8,8,0,0,0-4.94,5.52q-1.15,4-1.15,12.54V138.46q0,8.28,1.26,12.42a8,8,0,0,0,5.06,5.52,41.48,41.48,0,0,0,10.93,1.84v4.6q-6.21-.47-15.64-.58t-19.09-.11q-11,0-20.7.11t-15.64.58v-4.6a40.84,40.84,0,0,0,11-1.84,8,8,0,0,0,4.94-5.52q1.26-4.14,1.27-12.42V24.38q0-8.5-1.27-12.54a8.3,8.3,0,0,0-5.06-5.52A34.21,34.21,0,0,0,326.37,4.6V0q6,.22,15.64.46t20.7.23q9.66,0,19.09-.23T397.44,0Z"/><path class="cls-2" d="M570.16,0V4.6c-4.91.61-8.58,1.88-11,3.8s-4.1,4.94-4.94,9.08A92.11,92.11,0,0,0,552.91,35V163.3c-1.84-.15-3.71-.23-5.63-.23s-3.95.08-6.1.23L441.36,36.8v88.32q0,12.65,1.38,19.43t6.1,9.66q4.71,2.88,14.83,4v4.6q-4.37-.47-11.5-.58t-13.34-.11c-3.52,0-7.13,0-10.81.11a91.65,91.65,0,0,0-9.2.58v-4.6q7.37-1.16,11-3.91c2.46-1.84,4.1-4.87,4.95-9.09a93.29,93.29,0,0,0,1.26-17.36V24.38q0-8.5-1.26-12.54a8.32,8.32,0,0,0-5.06-5.52A34.23,34.23,0,0,0,418.82,4.6V0c2.46.15,5.52.31,9.2.46s7.29.23,10.81.23q5.52,0,10.58-.23c3.38-.15,6.44-.31,9.2-.46l89,109.71v-72q0-12.64-1.38-19.44t-6.09-9.77q-4.73-3-14.84-3.91V0c2.92.15,6.75.31,11.5.46s9.2.23,13.34.23q5.52,0,10.93-.23C564.68.31,567.71.15,570.16,0Z"/><path class="cls-2" d="M713.45,0q-.91,10.13-1.26,19.55T711.84,34q0,4.6.23,8.74c.15,2.76.31,5.06.46,6.9h-5.29q-2.29-16.78-7.13-26.57T687.58,9.31a38.54,38.54,0,0,0-18.06-4h-9.43A33.73,33.73,0,0,0,650,6.44a6.93,6.93,0,0,0-4.6,4.6q-1.15,3.45-1.15,10.58v119.6a36.06,36.06,0,0,0,1.15,10.47,6.94,6.94,0,0,0,4.6,4.71,33.73,33.73,0,0,0,10.12,1.15h11.27a36.54,36.54,0,0,0,18.29-4.49q7.94-4.49,13.57-15.29t8.62-29.21h5.29q-.69,7.36-.69,19.32,0,5.3.23,15t1.38,20q-11.73-.47-26.45-.58t-26.22-.11H650.66q-9,0-19.32.11l-20.93.23q-10.57.12-20,.35v-4.6a40.69,40.69,0,0,0,11-1.84,8,8,0,0,0,4.95-5.52q1.26-4.14,1.26-12.42V24.38q0-8.5-1.26-12.54a8.32,8.32,0,0,0-5.06-5.52A34.28,34.28,0,0,0,590.4,4.6V0q9.44.22,20,.34l20.93.23q10.35.12,19.32.12h14.72q10.57,0,24-.12T713.45,0ZM677.57,78.66v4.6H637.32v-4.6Zm6.67-30.36q-.91,13.11-.8,20T683.55,81q0,5.75.23,12.65t1.15,20h-5.29a55.37,55.37,0,0,0-4.25-15,27.83,27.83,0,0,0-8.86-11.16q-5.74-4.24-14.95-4.25v-4.6a22.52,22.52,0,0,0,11.73-2.88,24.1,24.1,0,0,0,7.94-7.59,45,45,0,0,0,4.94-10A74.16,74.16,0,0,0,679,48.3Z"/></g></svg>