<svg xmlns="http://www.w3.org/2000/svg" viewBox="0 0 347.39 377"><defs><style>.cls-1{fill:none;}.cls-2{fill:#fbfbfb;}</style></defs><title>cart-white</title><g id="Layer_2" data-name="Layer 2"><g id="Layer_1-2" data-name="Layer 1"><path class="cls-1" d="M268.68,106.14H297c0,.11,0,.24,0,.37l19.11,242.82a4.08,4.08,0,0,1,0,1H31.3a4.63,4.63,0,0,1,0-1L50.7,106.51c0-.13,0-.26,0-.37h28"/><path class="cls-2" d="M347.31,347.55,328.2,104.73a27.69,27.69,0,0,0-27.83-25.25h-32C261.3,34.47,221.61,0,173.71,0S86.1,34.47,79,79.48H47.34a27.69,27.69,0,0,0-27.82,25.21L.09,347.52C-1.18,363.41,11.64,377,27.91,377H319.49C335.75,377,348.56,363.43,347.31,347.55ZM129.53,45a62.36,62.36,0,0,1,88.34,0,67.41,67.41,0,0,1,18.88,34.48H110.65A67.48,67.48,0,0,1,129.53,45ZM316.1,350.34H31.3a4.63,4.63,0,0,1,0-1L50.7,106.51c0-.13,0-.26,0-.37H297c0,.11,0,.24,0,.37l19.11,242.82A4.08,4.08,0,0,1,316.1,350.34Z"/></g></g></svg>