<svg xmlns="http://www.w3.org/2000/svg" viewBox="0 0 347.08 377"><defs><style>.cls-1{fill:#fbfbfb;}</style></defs><title>support-white</title><g id="Layer_2" data-name="Layer 2"><g id="Layer_1-2" data-name="Layer 1"><path class="cls-1" d="M346.45,169.6C343,126.37,325.72,86.17,296.9,55,264.07,19.54,220.26,0,173.54,0S83,19.54,50.18,55C21.36,86.17,4.06,126.37.63,169.6l-.63,16V377H92.66c16.63,0,30.54-11.27,33.65-26.17a31.17,31.17,0,0,0,.65-6.3V276.69c0-17.9-15.39-32.46-34.3-32.46h-65V195.77l1.75-26.17C36.76,89.71,98.6,27.14,173.54,27.14S310.33,89.71,317.69,169.6c.48,5.25.72,10.59.72,16,0,3.42.2,6.81,0,10.18l1,48.46h-66c-18.91,0-34.3,14.56-34.3,32.46v67.84a31.17,31.17,0,0,0,.65,6.3c3.11,14.9,17,26.17,33.65,26.17h93.68V185.59ZM92.66,270.39a6.5,6.5,0,0,1,6.65,6.3v67.84a6.5,6.5,0,0,1-6.65,6.3h-65V270.39Zm225.75,80.44h-65a6.5,6.5,0,0,1-6.66-6.3V276.69a6.5,6.5,0,0,1,6.66-6.3h65Z"/></g></g></svg>