<svg xmlns="http://www.w3.org/2000/svg" viewBox="0 0 347.09 377"><defs><style>.cls-1{fill:#fbfbfb;}</style></defs><title>user-white</title><g id="Layer_2" data-name="Layer 2"><g id="Layer_1-2" data-name="Layer 1"><path class="cls-1" d="M173.55,26.66c40.56,0,73.56,34.26,73.56,76.39,0,28.37-15,54.26-39.23,67.57a31.38,31.38,0,0,0-16.33,31.18,31.82,31.82,0,0,0,23,26.72c51.52,15,91.6,57.48,104.61,110.84a9.63,9.63,0,0,1-1.81,8.5,6.09,6.09,0,0,1-4.81,2.48H34.57a6.09,6.09,0,0,1-4.81-2.48,9.63,9.63,0,0,1-1.81-8.5C41,286,81,243.53,132.56,228.52a31.85,31.85,0,0,0,23-26.74,31.39,31.39,0,0,0-16.33-31.16c-24.37-13.39-39.41-39.47-39.24-68.06.25-41.3,32.79-75.34,72.55-75.9h1m0-26.66h-1.42C117.3.77,72.67,46.57,72.34,102.4a103.29,103.29,0,0,0,53.19,91.38,5.05,5.05,0,0,1-1,9.23C63.79,220.71,16.33,270.52,1,333.26-4.38,355.49,12.08,377,34.57,377h278c22.49,0,39-21.51,33.53-43.74C330.76,270.52,283.3,220.71,222.53,203a5.05,5.05,0,0,1-.95-9.24,103.29,103.29,0,0,0,53.17-90.72c0-56.92-45.31-103-101.2-103Z"/></g></g></svg>